<svg version="1.1" xmlns="http://www.w3.org/2000/svg" style="display: block;" viewBox="0 0 2048 2048" width="1024" height="1024" preserveAspectRatio="none">
<path transform="translate(0,0)" fill="rgb(8,9,9)" d="M 1262.7 376.467 C 1276.69 374.291 1301.11 381.152 1314.94 379.835 C 1357.32 375.8 1397.93 379.939 1440.38 378.813 C 1480.19 377.757 1520.51 384.972 1560.62 385.613 C 1594.87 386.466 1629.13 385.671 1663.29 383.231 C 1682.74 382.023 1700.15 378.9 1720.3 379.232 C 1744.17 378.572 1770.12 383.1 1793.72 382.643 C 1818.56 382.161 1835.4 379.823 1860.54 384.107 C 1890.76 389.255 1926.09 380.639 1956.93 387.48 C 1961.19 388.425 1972.41 398.793 1973.86 403.492 C 1980.21 421.673 1973.35 439.833 1974.11 458.271 L 1980.34 617.494 C 1980.8 629.158 1983.82 645.186 1983.88 655.144 C 1984.07 682.732 1982.32 710.193 1983.44 737.96 C 1984.04 752.764 1987.98 768.633 1987.46 783.68 C 1986.64 807.314 1984.12 831.756 1983.21 855.356 C 1982.55 872.407 1984.61 889.147 1983.48 906.921 C 1982.7 919.118 1980.66 933.974 1980.52 945.55 C 1979.7 983.227 1980.1 1020.92 1981.72 1058.57 C 1982.94 1085.58 1984.62 1113.22 1986.1 1140.23 C 1985.51 1150.46 1983.23 1159.97 1982.45 1170.29 C 1979.64 1186.4 1983.62 1207.38 1981.91 1222.61 C 1975.73 1277.96 1977.64 1333.46 1979.57 1389.01 C 1980.05 1402.64 1976.98 1418.35 1978.1 1431.89 C 1980.05 1455.38 1979.5 1478.66 1980.36 1502.19 C 1980.76 1515.77 1974.87 1539.19 1975.33 1554.14 C 1975.82 1570.23 1976.71 1630.39 1971.12 1643.56 C 1961.43 1653.64 1936.82 1655.49 1923.65 1653.81 C 1920.55 1653.41 1915.56 1650.46 1912.72 1648.83 C 1899.24 1648.91 1881.62 1652.46 1866.58 1653.16 L 1698.52 1660.32 C 1682.65 1661.07 1663.29 1659.65 1646.91 1659.97 C 1628.88 1660.32 1609.15 1657.99 1591.03 1657.93 C 1581.96 1657.9 1572.2 1659.75 1563.07 1660.05 C 1552.22 1662.12 1535.96 1658.7 1525.83 1660.37 C 1504.65 1663.86 1487.27 1661.15 1466.5 1660.79 C 1438.23 1660.31 1410.1 1660.36 1381.82 1658.68 C 1359.64 1657.37 1337.06 1653.6 1314.92 1654.25 L 1164.52 1659.65 C 1133.12 1660.73 1104.04 1664.5 1072.24 1660.34 C 1063.99 1659.26 1048.52 1662.51 1039.28 1662.52 C 1021.31 1662.53 1002.89 1659.45 985.196 1662.63 C 971.316 1666.83 955.358 1662.93 942.262 1664.45 C 911.321 1668.03 885.792 1665.61 854.768 1662.6 C 853.7 1663.31 849.606 1666 848.406 1666.14 C 829.502 1668.24 810.503 1666.68 791.482 1667.99 C 790.481 1668.06 782.299 1666.47 781.309 1666.27 C 767.397 1663.66 733.905 1665.69 719.534 1667.31 C 691.754 1670.44 664.863 1664.82 637.627 1665 C 611.114 1665.18 585.614 1670.09 558.63 1663.38 C 544.591 1660 528.135 1662.25 513.631 1661.69 C 470.073 1660 427.183 1658.14 383.896 1664.97 C 366.388 1667.42 338.541 1666.43 320.809 1665.68 C 300.691 1666.49 275.394 1662.42 255.924 1663.56 C 227.674 1665.2 212.607 1663.76 185.057 1660.25 C 161.859 1657.3 133.394 1663.07 109.183 1659.08 C 104.013 1658.23 88.6168 1659.85 85.1391 1656.77 C 83.5662 1651.5 83.0577 1649.56 79.7739 1645.19 C 79.4558 1639.1 78.1849 1643.54 73.6662 1639.69 C 69.6601 1620.56 75.419 1600.3 76.3486 1581.59 C 76.4953 1578.64 72.7972 1567.75 72.5367 1563.11 C 71.7681 1549.42 71.1214 1535.6 70.1304 1521.92 C 69.5537 1513.96 70.6882 1504.9 70.364 1497.03 C 69.6219 1479.01 68.727 1460.48 68.4009 1442.47 C 68.0511 1423.15 65.2517 1404.99 64.4626 1386.09 C 63.3907 1360.43 64.4682 1334.66 64.3412 1308.95 C 64.27 1294.54 59.884 1276.66 60.0131 1264.13 C 60.2725 1238.95 63.2083 1211.56 64.7889 1186.26 C 65.2046 1179.38 62.1135 1170.63 62.6563 1163.96 C 64.8158 1137.7 66.9219 1110.88 66.7183 1084.5 C 66.2469 1023.44 63.7143 962.56 60.1502 901.604 C 59.6674 893.347 62.2026 881.615 62.3814 872.742 C 63.3976 822.318 67.4762 770.947 66.7023 720.519 L 64.8795 597.732 C 64.4041 578.113 62.5497 556.106 62.7594 536.891 C 63.3475 521.198 68.1504 505.409 68.0357 489.686 C 67.9306 475.258 64.889 406.742 73.6751 399.092 C 77.2296 398.247 80.7584 399.054 84.4213 399.557 C 87.194 390.435 85.9097 392.342 96.1691 389.425 C 104.173 387.149 109.044 388.385 116.969 390.497 C 130.557 394.119 145.323 389.743 159.032 389.354 C 176.087 388.999 192.823 386.909 209.909 387.412 C 250.098 388.594 290.197 384.606 330.245 382.079 C 338.033 381.485 346.209 379.622 353.974 379.46 C 393.987 378.625 435.781 382.451 475.459 382.219 L 630.944 382.499 C 643.613 382.485 656.504 379.21 669.249 379.844 C 676.098 380.185 683.413 380.55 690.111 382.014 C 706.182 385.095 724.777 389.655 741.264 388.788 C 772.028 387.171 802.72 386.942 833.5 386.156 C 846.579 385.821 860.259 383.264 873.427 382.857 C 882.352 382.581 890.77 385.302 899.626 385.229 C 910.633 384.319 921.411 381.495 932.473 381.128 C 953.165 380.442 973.049 382.506 993.539 384.946 C 1000.14 385.508 1008.26 382.841 1014.63 383.12 C 1034.71 383.882 1056.2 386.168 1076.15 383.357 C 1092.9 380.998 1108.33 381.793 1125.09 381.564 C 1133.75 381.446 1144.88 378.274 1153.32 378.496 C 1168.54 378.896 1191.73 379.59 1206.2 383.778 C 1207.6 382.856 1213.55 378.904 1214.4 378.879 C 1229.85 378.41 1247.52 378.032 1262.7 376.467 z M 124.338 435.907 C 120.353 474.85 115.988 516.921 115.626 555.989 C 115.397 591.375 116.045 626.762 117.569 662.116 C 118.715 684.55 121.151 709.147 121.64 731.481 C 122.481 769.874 115.575 808.918 116.579 847.87 C 117.137 869.503 117.339 896.814 114.946 918.994 C 114.896 919.464 112.728 921.405 112.286 921.773 C 116.336 931.812 113.847 951.398 113.406 962.954 C 112.712 981.736 112.272 1000.53 112.088 1019.32 C 111.393 1066.37 106.978 1114.8 109.031 1161.41 C 111.477 1216.95 117.609 1273.44 119.058 1329.24 C 119.572 1349 113.689 1372.95 115.23 1393.35 C 114.723 1433.28 122.151 1474.84 123.467 1514.04 C 124.473 1543.98 120.511 1572.72 123.205 1603.59 C 147.999 1611.35 202.355 1606.64 229.583 1608.78 C 242.668 1609.81 259.116 1609.4 272.205 1611 C 304.28 1614.92 343.617 1617.72 375.763 1614.17 C 391.279 1613.71 407.069 1611.19 422.581 1609.95 C 449.708 1606.6 480.293 1611.72 506.509 1610.96 C 532.708 1610.2 564.194 1614.29 588.626 1612.23 C 644.315 1607.53 696.674 1602.1 752.998 1607.46 C 790.311 1611 828.36 1615.06 866.136 1612.56 C 914.696 1607.34 956.525 1610.01 1004.79 1613.15 C 1049.19 1616.03 1094.8 1609.64 1139.27 1608.34 C 1178.78 1607.19 1218.72 1603.66 1258.23 1601.7 C 1284.99 1602.82 1311.83 1604.17 1338.58 1605.51 C 1352.98 1606.24 1369.31 1603.16 1383.42 1603.97 C 1435.75 1606.95 1487.1 1605.08 1539.33 1601.85 C 1545.59 1601.46 1550.63 1607.29 1556.4 1605.44 C 1566.55 1598.3 1582.83 1609.07 1592.14 1607.89 C 1617.79 1604.62 1642.61 1610.21 1668.29 1609.58 C 1726.71 1609.65 1784.41 1604.03 1842.62 1600.48 C 1853.07 1599.85 1864.88 1602.51 1875.1 1602.58 C 1889.34 1602.69 1905.96 1603.81 1920 1602.86 L 1920.05 1601.42 C 1920.51 1589.35 1923.57 1577.2 1924.42 1564.9 C 1926.41 1536.17 1925.99 1507.49 1927.97 1478.74 C 1928.56 1470.1 1926.9 1460.27 1927.1 1451.5 C 1929.15 1374.76 1919.57 1297.99 1927.79 1221.47 C 1930.01 1200.81 1928.93 1179.99 1928.97 1159.31 C 1930.53 1116.48 1933.52 1073.32 1934 1030.45 L 1934.2 929.628 C 1934.13 918.097 1934.89 905.818 1934.38 894.429 C 1932.93 868.641 1928.91 843.486 1928.74 817.577 C 1928.66 804.839 1930.03 793.178 1930.51 780.719 C 1932.12 739.365 1928.34 698.765 1932.34 657.445 C 1935.72 622.357 1930.53 585.38 1930.64 550 C 1930.58 540.001 1926 527.771 1926.18 517.462 C 1926.01 501.128 1931.12 453.843 1926.3 441.367 C 1922.54 437.411 1908.58 437.086 1903.25 436.974 C 1889.83 436.693 1876.4 437.325 1862.98 436.745 C 1832.92 435.447 1802.53 433.714 1772.53 431.484 C 1754.65 430.154 1736.69 428.092 1718.79 427.349 C 1706.36 426.833 1693.92 427.549 1681.49 427.368 C 1630.69 435.312 1577.75 436.196 1526.65 431.591 C 1493.76 428.627 1467.7 431.147 1435.21 436.041 C 1419.14 438.461 1398.76 436.644 1382.32 437.901 C 1317.26 437.987 1251.79 427.148 1186.85 429.027 C 1125.05 430.815 1064.26 425.13 1002.55 431.536 C 993.388 432.073 983.982 433.488 974.823 433.773 C 958.713 434.178 941.784 431.452 925.756 432.246 C 866.349 435.191 805.755 441.661 746.264 437.105 C 721.723 435.225 702.224 437.243 678.685 436.89 C 647.585 436.424 617.868 436.868 586.838 437.325 C 578.357 437.086 569.791 436.466 561.298 436.307 C 505.563 437.994 449.86 431.945 394.304 429.257 C 338.676 427.746 281.296 436.461 225.734 437.722 C 208.648 438.38 191.261 435.111 174.189 434.437 C 158.234 433.407 140.279 434.696 124.338 435.907 z M 136.427 1655.54 L 136.67 1657.95 L 137.328 1657.92 L 137.912 1655.22 L 136.427 1655.54 z M 95.6745 1479.2 L 94.0639 1481.36 L 96.2327 1481.68 L 97.0098 1479.52 L 95.6745 1479.2 z M 100.475 745.109 C 100.89 749.052 101.306 753.833 104.542 756.588 C 105.763 757.627 106.746 757.098 108.221 756.958 L 109.088 756.277 L 108.537 754.812 C 105.85 753.835 105.265 753.983 103.837 751.562 C 103.97 748.844 104.575 748.228 102.849 745.993 L 100.475 745.109 z M 102.448 781.243 C 103.243 784.171 104.483 784.392 106.932 786.063 L 107.198 783.571 C 105.435 782.341 104.648 781.226 102.448 781.243 z M 102.108 766.784 C 101.312 770.509 102.005 773.471 102.74 777.164 C 103.536 778.015 104.233 778.859 105.196 779.523 C 106.252 775.213 106.139 772.758 103.731 768.756 C 102.693 767.03 103.232 767.503 102.108 766.784 z"/>
<path transform="translate(0,0)" fill="rgb(8,9,9)" d="M 305.258 923.419 C 305.59 923.374 305.92 923.311 306.254 923.286 C 341.924 920.529 385.925 924.778 414.992 947.557 C 446.052 971.898 458.238 1012.68 462.415 1050.35 C 468.489 1105.12 465.607 1165.45 429.45 1209.95 C 394.958 1252.41 346.804 1247.83 297.938 1252.89 C 292.691 1281 295.573 1305.84 296.371 1333.6 C 296.645 1343.11 296.235 1352.63 296.54 1362.13 C 297.029 1377.37 298.572 1392.57 299.048 1407.81 C 299.515 1422.78 298.819 1437.82 298.499 1452.79 C 298.731 1465.6 301.403 1488.73 292.87 1498.79 C 283.211 1502.7 270.843 1500.05 260.551 1500.32 C 243 1500.78 223.643 1504.16 206.431 1499.21 C 203.652 1498.41 200.372 1497.24 199.15 1494.42 C 197.11 1489.7 197.622 1481.08 197.344 1475.97 C 193.779 1410.53 201.035 1345.58 201.221 1280.18 C 201.33 1241.93 198.647 1203.67 198.32 1165.42 C 198.146 1145.07 199.422 1124.63 199.766 1104.27 C 200.206 1078.24 199.705 1051.76 198.892 1025.72 C 198.4 1009.98 191.529 942.258 198.461 932.784 C 206.903 921.248 287.245 925.622 305.258 923.419 z M 297.13 1158.17 C 313.989 1158.61 327.426 1159.05 342.52 1149.83 C 355.617 1140.04 360.872 1127.8 363.158 1111.98 C 366.828 1086.56 369.025 1048.95 352.08 1027.42 C 344.314 1017.55 332.246 1012.33 319.942 1011.08 C 315.001 1010.58 309.909 1011 304.96 1011.26 C 302.329 1012.17 299.289 1012.5 297.831 1015.11 C 291.088 1027.17 296.001 1072.69 295.834 1088.89 C 295.701 1101.82 293.901 1114.82 294.363 1127.74 C 294.725 1137.86 295.905 1148.12 297.13 1158.17 z"/>
<path transform="translate(0,0)" fill="rgb(8,9,9)" d="M 589.853 1039.4 C 591.088 1039.17 592.247 1038.98 593.502 1038.89 C 621.855 1036.85 646.493 1044.26 668.118 1062.52 C 674.307 1067.75 679.72 1073.45 683.92 1080.42 C 702.225 1110.78 711.423 1168.9 714.451 1204.59 C 716.406 1227.63 718.914 1251.9 718.982 1275 C 719.015 1286.28 717.742 1297.75 716.998 1309 C 714.067 1353.4 711.051 1402.67 694.758 1444.46 C 690.079 1456.32 683.471 1467.33 675.2 1477.03 C 658.171 1496.87 632.829 1505.71 607.25 1507.53 C 582.493 1509.59 554.871 1504.2 535.545 1487.95 C 502.252 1459.94 489.143 1411.22 485.583 1369.69 C 482.869 1338.03 480.062 1305.85 479.63 1274.08 C 479.08 1233.59 484.145 1159.96 495.111 1122.36 C 500.215 1104.85 508.744 1086.18 520.647 1072.23 C 538.371 1051.46 563.244 1041.54 589.853 1039.4 z M 605.535 1420.59 C 615.519 1414.64 618.52 1405.17 621.222 1394.4 C 628.37 1365.9 629.424 1337.42 630.742 1308.25 C 631.268 1296.6 632.571 1284.82 632.6 1273.17 C 632.667 1245.99 626.704 1154.31 614.012 1133.5 C 611.492 1129.37 607.976 1126.6 603.23 1125.47 C 599.492 1124.57 595.622 1124.88 591.824 1125.1 C 578.375 1134.82 575.576 1152.33 573.032 1167.78 C 567.731 1200 565.43 1234.98 564.943 1267.67 C 564.524 1295.73 569.012 1393.65 584.514 1414.66 C 587.375 1418.54 591.41 1420.77 596.173 1421.4 C 599.245 1421.8 602.53 1421.21 605.535 1420.59 z"/>
<path transform="translate(0,0)" fill="rgb(8,9,9)" d="M 1629.15 933.066 C 1640.54 932.814 1692.23 931.448 1698.97 936.586 C 1701.56 938.56 1702.17 946.291 1702.37 949.37 C 1703.69 970.406 1701.53 992.146 1701.05 1013.23 C 1700.44 1039.4 1701.03 1065.56 1700.43 1091.73 C 1700.03 1109.04 1698.48 1126.93 1700.06 1144.17 L 1700.26 1146.2 C 1712.91 1119.45 1720.71 1089.77 1729.38 1061.54 C 1737.89 1033.84 1747.03 1006.49 1756.22 979.033 C 1760.1 967.419 1762.73 954.83 1767.65 943.641 C 1768.61 941.474 1769.5 939.896 1771.45 938.451 C 1774.43 936.247 1778.37 935.251 1781.98 934.739 C 1790.5 933.531 1840 932.507 1846.36 934.443 C 1847.81 934.885 1848.98 935.655 1849.7 936.982 C 1850.97 939.319 1850.64 941.2 1850.09 943.668 C 1844.51 968.687 1832.72 993.639 1824.08 1017.84 C 1814.32 1045.2 1805.91 1073.06 1796.17 1100.43 C 1786.99 1126.22 1776.27 1151.45 1767.41 1177.4 C 1769.98 1190 1774.07 1202.35 1777.44 1214.76 C 1782.07 1231.78 1786.37 1248.92 1791.47 1265.81 C 1798.38 1288.72 1806.22 1311.51 1812.72 1334.52 C 1819.48 1358.44 1823.66 1382.93 1829.54 1407.04 C 1833.03 1421.33 1837.73 1435.3 1842.36 1449.25 C 1845.1 1457.53 1855.22 1480.81 1855.53 1487.87 C 1855.69 1491.4 1854.55 1493.86 1851.99 1496.26 C 1841.46 1506.1 1792.61 1500.89 1778.29 1499.9 C 1767.66 1484.97 1765.14 1460.22 1760.72 1442.53 C 1754.02 1415.77 1745.76 1389.5 1739.28 1362.64 C 1733.06 1336.86 1729.47 1307.8 1719.47 1283.32 C 1713.96 1296.57 1701.92 1321.53 1700.2 1334.66 C 1698.17 1350.06 1700.52 1370.14 1700.8 1386.15 C 1701.18 1408.26 1700.38 1430.4 1701.01 1452.49 C 1701.29 1462.45 1705.56 1487.87 1702.11 1495.98 C 1701.15 1498.23 1700.05 1499.6 1697.64 1500.28 C 1692.43 1501.76 1641.74 1502.01 1635.14 1501.15 C 1631 1500.61 1627.72 1499.62 1624.28 1497.26 C 1617.86 1486.51 1625.94 1292.9 1626.07 1264.2 C 1626.23 1229 1624.57 1193.91 1623.72 1158.73 C 1622.07 1093.79 1621.61 1028.82 1622.35 963.859 C 1622.58 952.91 1620.63 941.224 1629.15 933.066 z"/>
<path transform="translate(0,0)" fill="rgb(8,9,9)" d="M 924.988 932.428 C 931.172 932.055 938.215 931.067 944.338 931.891 C 951.553 932.863 954.604 935.322 958.865 941.015 C 959.25 947.367 958.94 953.759 959.3 960.122 C 959.977 972.054 964.742 1006.37 956.386 1014.64 C 954.183 1016.82 951.713 1017.94 948.703 1018.46 C 942.232 1019.6 935.004 1018.31 928.41 1018.46 C 921.108 1018.62 913.817 1019.52 906.52 1019.86 C 899.539 1020.19 892.523 1019.75 885.555 1020.39 C 882.565 1020.66 876.173 1021.47 874.006 1023.9 C 871.592 1026.62 871.729 1052.11 871.653 1056.82 C 871.015 1096.56 873.918 1136.32 873.885 1176.02 L 873.874 1294.91 C 873.846 1305.34 872.635 1315.81 872.949 1326.24 C 873.292 1337.6 875.137 1348.87 875.373 1360.25 C 875.83 1382.22 875 1404.02 875.971 1426.03 C 876.589 1440.05 879.354 1454.22 878.724 1468.23 C 878.25 1478.75 877.569 1490.12 870.68 1498.63 C 858.671 1502.4 844.395 1498.74 831.9 1499.21 C 821.977 1499.59 812.116 1501.23 802.194 1501.63 C 795.623 1501.9 788.609 1501.98 783.6 1497.02 C 774.383 1487.88 776.245 1465.95 776.022 1453.75 C 775.221 1425.1 778.004 1396.32 778.478 1367.7 C 778.723 1352.91 777.131 1338.06 777.308 1323.24 C 777.628 1296.4 780.145 1269.58 780.668 1242.75 C 781.019 1224.74 778.614 1206.59 778.484 1188.53 C 778.365 1172.01 780.227 1155.53 780.651 1139.03 C 780.909 1129.03 779.918 1119 779.755 1109 C 779.5 1093.47 779.682 1078.02 779.213 1062.48 C 778.9 1052.11 779.924 1040.83 778.483 1030.6 C 778.066 1027.65 776.677 1025.07 775.266 1022.48 C 759.483 1020.97 710.473 1023.29 698.547 1017.13 C 695.583 1015.6 694.268 1013.15 693.604 1010.02 C 691.62 1000.65 688.569 946.555 693.69 939.648 C 700.794 930.067 779.281 934.786 793.998 934.548 C 813.968 934.225 833.931 932.928 853.928 932.919 C 877.522 932.908 901.454 934.186 924.988 932.428 z"/>
<path transform="translate(0,0)" fill="rgb(8,9,9)" d="M 1489.91 932.427 C 1513.36 932.466 1536.03 936.847 1553.83 953.378 C 1584.32 981.701 1586.33 1032.85 1587.61 1071.63 C 1587.9 1080.42 1590.19 1103.71 1584.42 1109.86 C 1574.8 1113.66 1529.71 1116.58 1520.01 1113.01 C 1517.72 1112.17 1517.29 1108.67 1517.11 1106.51 C 1516.55 1099.65 1517.72 1092.35 1518.06 1085.45 C 1518.98 1066.68 1520.1 1039.38 1510.95 1022.25 C 1508.8 1018.22 1505.67 1015.02 1501.19 1013.75 C 1495.04 1011.99 1486.75 1013.53 1481.42 1016.97 C 1472.75 1022.55 1470.4 1034.88 1468.61 1044.35 C 1466.18 1057.24 1465.88 1070.61 1464.92 1083.68 C 1461.88 1125.05 1461.89 1166.09 1462.25 1207.55 C 1462.34 1218.76 1461.51 1229.94 1461.44 1241.14 C 1461.26 1268.3 1462.83 1297.31 1467.42 1324.1 C 1468.8 1332.15 1471.12 1341.64 1476.01 1348.29 C 1479.47 1353 1486.27 1355.8 1491.95 1356.41 C 1496.44 1356.89 1500.55 1355.84 1503.95 1352.78 C 1524.82 1334.02 1515.31 1276.26 1516.6 1250.96 C 1516.73 1248.48 1516.71 1244.62 1518.9 1242.98 C 1526.53 1237.28 1540.36 1240.56 1549.04 1241.72 C 1560.39 1241.62 1576.09 1239.62 1586.48 1244.36 C 1589.37 1247.11 1589.79 1250.7 1590.15 1254.52 C 1591.01 1263.89 1590.1 1273.57 1590.19 1282.99 C 1590.62 1325.73 1589.15 1375.38 1560.46 1410.05 C 1545.84 1427.71 1523.92 1436.61 1501.4 1438.65 C 1474.12 1441.11 1448.61 1435.69 1427.41 1417.59 C 1385.21 1381.57 1384.17 1291.63 1380.31 1239.87 C 1379.51 1229.09 1380.36 1218.37 1380.22 1207.59 C 1379.28 1162.96 1381.08 1118.32 1385.61 1073.91 C 1387.12 1058.18 1388.12 1041.97 1391.54 1026.52 C 1396.32 1004.93 1404.74 978.833 1419.4 961.925 C 1438.18 940.265 1462.39 934.252 1489.91 932.427 z"/>
<path transform="translate(0,0)" fill="rgb(8,9,9)" d="M 1267.22 935.272 C 1267.92 935.443 1269.05 935.677 1269.67 936.022 C 1271.76 937.188 1272.37 939.21 1272.75 941.418 C 1274.01 948.827 1273.28 957.175 1273.21 964.701 C 1273.01 986.128 1270.61 1015.85 1273.84 1036.32 C 1274.38 1039.74 1274.99 1045.26 1278.01 1047.41 C 1290.4 1037.91 1279.57 952.507 1289.3 937.655 C 1290.28 936.174 1290.1 936.646 1292.09 936.252 C 1292.86 936.951 1293.85 937.469 1294.41 938.35 C 1300.2 947.503 1292.73 1032.42 1302.44 1046.82 L 1303.81 1046.39 C 1312.35 1027.91 1306.78 964.539 1311.26 937.584 L 1314.27 937.074 C 1316.39 937.941 1317.19 938.202 1317.87 940.679 C 1319.31 945.883 1318.82 953.293 1319.05 958.754 C 1319.75 975.108 1319.61 1039 1326.98 1047.7 L 1328.8 1046.87 C 1334.12 1036.53 1332.16 977.745 1332.1 963.504 C 1332.07 956.329 1330.43 946.112 1332.96 939.444 C 1333.78 937.289 1334.15 937.116 1336.11 936.191 C 1338.36 937.052 1339.25 937.075 1340.23 939.469 C 1343.43 947.295 1343.91 959.333 1345.16 967.761 C 1349.75 998.822 1359.59 1056.68 1347.77 1085.89 C 1340.86 1102.95 1323.36 1112.61 1322.04 1132.12 C 1321.09 1146.21 1323.59 1160.31 1325.3 1174.25 C 1326.78 1186.22 1327.7 1198.25 1329.19 1210.22 C 1334.03 1249.22 1338.52 1286.96 1319.94 1323.35 C 1310.85 1341.54 1294.81 1355.29 1275.44 1361.5 C 1245.72 1371.06 1214.7 1366.47 1187.56 1352.32 C 1164.47 1339.18 1154.59 1319.07 1146.58 1294.38 C 1140.81 1276.58 1140.06 1259.6 1138.54 1241.17 C 1137.66 1230.58 1136.3 1219.96 1135.77 1209.35 C 1133.82 1169.99 1135.7 1130.4 1135.27 1091.02 L 1134.53 1021.58 C 1134.17 997.646 1133.4 973.162 1135.39 949.282 C 1135.58 947.005 1136.08 944.673 1137.34 942.724 C 1139.03 940.109 1141.96 938.876 1144.94 938.501 C 1149.38 937.942 1154.09 938.576 1158.58 938.405 C 1171.72 937.906 1186.13 935.815 1199.16 937.513 C 1203.17 938.037 1206.16 938.974 1209.37 941.433 C 1217.29 954.95 1208.47 1103.34 1208.95 1130.42 C 1209.65 1169.81 1211.25 1209.85 1216.42 1248.92 C 1217.98 1260.72 1221.22 1275.69 1231.45 1283.05 C 1235.82 1286.19 1240.98 1287.07 1246.21 1285.96 C 1253.38 1284.43 1258.33 1279.23 1261.95 1273.13 C 1269.38 1260.61 1273.09 1244.74 1275.98 1230.64 C 1279.91 1211.44 1287.85 1139.87 1281.86 1123.76 C 1275.4 1106.39 1260.53 1099.24 1255.55 1078.56 C 1247.64 1045.71 1254.38 1006.19 1258.89 973.119 C 1260.47 961.512 1261.03 945.277 1267.22 935.272 z"/>
<path transform="translate(0,0)" fill="rgb(8,9,9)" d="M 1104.18 529.405 C 1122.35 529.275 1138.5 529.229 1153.77 540.962 C 1178.5 559.972 1184.03 597.995 1188 626.985 C 1195.6 682.464 1200.13 794.557 1164.7 840.32 C 1153.17 855.219 1137.44 859.981 1119.64 862.181 C 1104.2 862.496 1086.34 860.443 1073.32 851.416 C 1047.96 833.831 1039.85 795.191 1035.42 766.814 C 1027.39 715.382 1025.63 596.845 1057.15 554.321 C 1069.57 537.556 1084.09 532.342 1104.18 529.405 z M 1113.4 803.299 C 1118.26 801.747 1120.5 800.359 1122.98 795.835 C 1138.67 767.236 1135.37 633.077 1125.63 602.396 C 1124.09 597.552 1122.29 593.003 1117.69 590.351 C 1115.29 588.968 1111.55 589.085 1108.84 588.964 C 1101.88 592.455 1099.72 596.809 1097.32 604.084 C 1087.84 632.851 1085.57 768.329 1099.42 793.802 C 1101.64 797.867 1105.73 801.403 1110.21 802.667 C 1112.08 803.191 1111.7 803.086 1113.4 803.299 z"/>
<path transform="translate(0,0)" fill="rgb(8,9,9)" d="M 1031.39 932.997 C 1038.69 932.299 1044.88 932.758 1051.26 936.588 C 1061.53 942.741 1066.2 954.84 1068.23 966.112 C 1075.24 1005.12 1069.37 1047.83 1065.41 1086.94 C 1061.2 1128.45 1058.61 1169.77 1056.51 1211.42 C 1055.23 1236.71 1052.59 1262.44 1055.7 1287.72 C 1059.1 1315.28 1073.91 1324.03 1089.34 1344.47 C 1097.5 1355.43 1103.29 1367.97 1106.36 1381.28 C 1115.04 1417.5 1106.84 1459.08 1087.27 1490.5 C 1076.83 1507.28 1063.88 1518.2 1044.42 1522.8 C 1037.73 1523.26 1031.22 1523.44 1024.68 1521.62 C 1007.15 1516.74 994.567 1501.69 985.79 1486.5 C 961.959 1445.25 957.037 1386.5 985.61 1346.24 C 998.364 1328.27 1015.08 1317.08 1020.36 1294.43 C 1025.73 1271.45 1022.6 1244.68 1021.23 1221.32 C 1019.33 1187.03 1016.83 1152.78 1013.74 1118.57 C 1010.24 1077.53 998.637 997.793 1008.86 960.91 C 1012.66 947.218 1019.3 939.836 1031.39 932.997 z"/>
<path transform="translate(0,0)" fill="rgb(8,9,9)" d="M 429.669 664.577 C 429.798 646.733 430.667 629.002 430.26 611.137 C 429.811 591.377 427.961 571.004 428.877 551.287 C 429.058 547.405 429.218 542.068 431.249 538.703 C 433.129 535.586 437.269 534.519 440.655 534.105 C 445.742 533.484 470.455 533.285 475.383 534.235 C 477.859 534.712 479.453 535.655 481.414 537.262 C 487.398 546.852 481.334 625.093 481.152 642.117 C 480.937 662.293 483.218 682.582 483.133 702.851 C 483.03 727.14 480.693 751.281 481.097 775.618 C 481.498 799.746 484.451 824.398 482.685 848.468 C 481.698 849.564 481.508 849.888 480.176 850.797 C 475.084 854.272 463.416 851.801 457.612 851.149 C 449.602 850.738 440.322 852.687 433.245 848.229 C 427.509 834.999 431.771 781.14 431.749 763.657 C 431.729 748.363 430.667 732.965 430.127 717.671 C 417.305 714.501 403.746 713.821 391.087 717.91 C 390.532 728.471 390.077 739.048 390.329 749.624 C 390.792 769.008 396.522 835.438 390.585 849.448 C 389.226 850.668 388.688 851.403 386.881 851.941 C 382.418 853.272 345.222 851.702 341.482 849.513 C 339.893 848.583 339.902 847.511 339.661 845.721 C 337.389 828.895 340.423 796.125 340.38 777.233 L 339.364 601.581 C 339.377 590.091 339.249 578.602 338.98 567.116 C 338.784 560.135 337.817 552.515 338.553 545.592 C 338.803 543.229 339.489 540.663 341.147 538.888 C 346.023 533.668 357.01 534.726 363.679 534.484 C 370.072 534.472 382.193 533.392 387.448 537.267 C 398.462 545.389 386.841 640.02 389.744 659.141 C 390.124 661.647 390.618 662.981 392.844 664.348 C 400.829 669.254 420.861 666.522 429.669 664.577 z"/>
<path transform="translate(0,0)" fill="rgb(8,9,9)" d="M 746.142 525.357 C 753.931 524.83 761.841 525.329 769.666 525.106 C 793.013 524.441 818.817 522.326 838.871 536.769 C 857.183 549.956 864.571 572.095 867.913 593.542 C 872.542 623.25 869.812 659.85 851.273 684.691 C 831.162 711.637 805.23 708.112 775.778 712.492 C 772.618 736.998 773.486 771.92 774.856 796.752 C 775.55 807.675 779.404 849.205 772.693 857.267 C 771.324 858.912 741.105 859.546 736.6 859.591 C 731.412 859.643 722.365 859.307 718.617 855.123 C 713.877 849.835 716.436 801.983 716.841 792.902 C 717.662 774.522 718.824 756.077 718.922 737.68 C 719.032 716.883 718.031 696.067 718.004 675.256 C 717.974 652.89 718.74 630.556 718.556 608.178 C 718.342 582.073 715.271 556.351 717.435 530.287 C 722.647 525.463 739.039 526.001 746.142 525.357 z M 774.461 656.98 C 783.729 657.01 791.244 656.409 799.766 652.204 C 808.033 645.219 811.172 635.086 812.001 624.539 C 812.995 611.895 811.769 592.817 803.098 582.986 C 797.047 576.124 790.064 574.957 781.378 574.182 C 778.191 575.533 776.283 576.339 774.949 579.694 C 770.293 591.4 773.064 642.372 774.461 656.98 z"/>
<path transform="translate(0,0)" fill="rgb(8,9,9)" d="M 1235.28 526.5 C 1243.62 525.086 1252.38 525.952 1260.81 526.027 C 1280.55 526.202 1300.83 524.434 1319.78 531.369 C 1335.57 537.145 1347.94 548.303 1354.83 563.674 C 1368.16 593.385 1368.26 637.567 1356.53 667.72 C 1347.52 690.901 1324.27 706.641 1299.65 708.473 C 1291.2 709.102 1279.79 707.457 1271.97 710.924 C 1267.58 723.48 1271.81 767.381 1272.53 783.5 C 1273.35 801.871 1273.4 820.792 1273 839.181 C 1272.88 844.917 1272.49 851.167 1268.15 855.352 C 1264.2 856.272 1232.72 857.147 1227.66 856.603 C 1224.13 856.223 1220.56 855.196 1217.12 854.31 C 1217.06 853.963 1216.98 853.617 1216.92 853.269 C 1211.71 822.501 1217.18 790.059 1217.96 759.089 C 1218.69 730.116 1217.43 701.213 1217.53 672.262 C 1217.63 643.548 1218.95 614.792 1217.72 586.077 C 1217.3 576.293 1212.54 536.778 1218.31 530.315 C 1221.8 526.408 1230.42 526.869 1235.28 526.5 z M 1271.09 578.706 C 1268.83 599.079 1269.49 637.367 1272.1 657.949 C 1278.96 656.786 1287.23 656.399 1293.69 654.001 C 1302.43 647.923 1306.9 641.431 1308.74 630.646 C 1311 617.446 1309.53 596.936 1301.58 585.902 C 1296.9 579.415 1290.32 576.139 1282.44 575.183 C 1282 575.13 1281.55 575.095 1281.11 575.05 L 1271.09 578.706 z"/>
<path transform="translate(0,0)" fill="rgb(8,9,9)" d="M 1776.47 529.443 C 1787.99 529.262 1799.63 530.153 1810.36 534.67 C 1824.59 540.655 1834.01 553.052 1839.53 567.06 C 1845.33 581.769 1851.22 619.387 1844.76 634.032 C 1840.66 637.264 1810.42 637.583 1804.11 636.639 C 1802.41 636.384 1800.79 636.29 1799.88 634.515 C 1795.75 626.387 1805.76 598.022 1794.07 582.71 C 1792.42 580.548 1790.01 578.788 1787.23 578.535 C 1781.37 578.001 1774.52 581.296 1770 584.662 C 1769.65 584.923 1769.31 585.193 1768.96 585.459 C 1765.07 593.097 1763.73 601.272 1763.82 609.783 C 1764.16 640.711 1790.55 661.606 1810.67 681.626 C 1839 709.801 1852.92 739.526 1852.85 779.887 C 1852.81 801.817 1845.54 828.092 1829.36 843.746 C 1812.91 859.67 1793.02 860.204 1771.53 860.148 C 1761.48 858.962 1752.11 856.879 1743.09 852.092 C 1727.75 843.941 1718.95 830.916 1714.03 814.666 C 1709.35 799.204 1704.01 762.047 1711.67 747.61 C 1713.48 746.148 1714.74 745.534 1717.07 745.174 C 1726.01 743.786 1750.42 740.636 1757.5 745.704 C 1761.36 752.079 1759.02 762.389 1758.77 769.549 C 1758.4 779.995 1758.1 798.182 1766.07 805.95 C 1769.52 809.313 1774.14 810.35 1778.84 810.275 C 1783.4 810.202 1786.94 808.642 1789.93 805.16 C 1795.06 799.186 1796.8 789.752 1797.3 782.091 C 1801.23 721.783 1718.21 698.434 1711.24 626.874 C 1708.7 600.8 1713.94 573.134 1730.98 552.537 C 1742.87 538.163 1758.19 531.295 1776.47 529.443 z"/>
<path transform="translate(0,0)" fill="rgb(8,9,9)" d="M 1001.93 529.444 C 1003.99 529.332 1006.67 528.923 1008.68 529.277 C 1010.61 529.616 1011.71 530.663 1012.78 532.205 C 1016.94 538.21 1018.04 566.595 1016.13 573.54 C 1010.86 592.642 960.452 573.711 947.264 583.525 C 944.34 585.701 944.636 586.878 944.373 590.296 C 943.798 597.767 943.674 663.151 946.102 665.297 C 952.793 671.208 975.591 666.512 984.636 666.856 C 988.287 666.995 992.46 667.934 994.765 671.047 C 998.399 675.953 996.938 709.958 995.75 716.533 C 987.21 726.942 960.051 714.646 947.823 722.208 C 946.039 724.449 945.238 726.305 944.672 729.13 C 942.462 740.165 942.5 794.011 947.627 802.083 C 954.889 806.23 966.255 804.302 974.483 804.368 C 983.898 804.443 1009.95 801.896 1016.39 809.856 C 1021.31 815.927 1018.13 837.958 1017.74 846.247 C 1017.88 849.764 1017.01 853.353 1016.45 856.824 C 993.118 858.588 969.513 856.582 946.159 856.491 C 929.021 856.425 909.48 859.923 892.804 856.108 C 891.975 851.367 891.359 846.592 890.958 841.797 C 887.366 797.245 891.382 752.085 891.367 707.503 C 891.361 688.267 890.374 669.024 890.351 649.777 C 890.335 635.514 891.347 621.261 891.13 607 C 890.821 586.625 889.281 565.994 889.816 545.644 C 889.935 541.134 889.656 534.847 892.708 531.258 C 905.285 527.608 943.828 530.449 959.657 530.49 C 973.752 530.387 987.843 530.038 1001.93 529.444 z"/>
<path transform="translate(0,0)" fill="rgb(8,9,9)" d="M 1631.63 529.467 C 1635.07 529.237 1638.7 529.585 1642.16 529.685 C 1642.37 530.712 1642.58 531.74 1642.72 532.779 C 1644.12 543.244 1648.72 568.839 1641.38 577.535 C 1639.06 580.283 1635.71 581.516 1632.26 582.117 C 1623.16 583.7 1612.23 581.733 1602.91 581.668 C 1592.95 581.598 1582.95 582.539 1573.03 583.297 C 1572.96 584.283 1572.88 585.269 1572.86 586.256 C 1572.63 596.189 1573.76 606.297 1573.93 616.249 C 1574.09 626.437 1570.84 655.747 1574.33 663.858 C 1574.56 664.394 1575.95 665.927 1576.28 666.2 C 1582.34 671.25 1602.83 666.31 1610.86 666.341 C 1614.79 666.356 1619.01 667.294 1621.74 670.343 C 1628.82 678.237 1625.24 704.988 1624.42 715.31 C 1617.16 726.148 1588.69 715.568 1577.08 721.363 C 1570.08 731.023 1572.53 774.078 1573.22 787.075 C 1573.42 790.889 1573.74 800.155 1576.52 802.676 C 1585.3 810.655 1633.52 798.264 1644.24 809.8 C 1649.96 815.964 1646.24 840.531 1645.83 849.243 C 1645.7 850.385 1645.63 852.399 1645.19 853.529 C 1644.31 855.782 1643.43 856.328 1641.16 856.921 C 1625.88 860.917 1590.08 856.323 1573 856.2 C 1559.86 856.106 1546.59 857.922 1533.47 857.129 C 1529.71 856.903 1524.86 856.558 1521.75 854.203 C 1519.79 852.713 1519.69 844.96 1519.49 842.418 C 1515.91 797.153 1519.99 751.275 1519.9 705.929 C 1519.86 687.037 1519.11 668.144 1519.15 649.252 C 1519.17 635.41 1520.05 621.542 1519.78 607.711 C 1519.37 586.213 1517.35 564.08 1518.38 542.632 C 1518.59 538.244 1519.26 534.75 1522.16 531.382 C 1535.83 527.272 1573.11 530.237 1589.42 530.334 C 1603.5 530.339 1617.57 530.05 1631.63 529.467 z"/>
<path transform="translate(0,0)" fill="rgb(8,9,9)" d="M 606.768 537.539 L 619.239 536.968 C 619.476 538.437 619.697 539.908 619.901 541.381 C 621.224 550.982 624.839 575.761 617.974 583.007 C 615.992 585.1 612.966 586.045 610.185 586.414 C 603.401 587.315 595.772 586.114 588.897 586.038 C 578.608 585.925 568.429 586.712 558.184 587.538 C 557.474 600.371 558.625 613.163 558.757 625.997 C 558.85 635.095 558.056 644.251 558.556 653.334 C 558.704 656.014 558.816 660.33 560.063 662.702 C 565.521 673.079 593.657 661.189 602.359 668.981 C 606.866 679.86 606.673 701.121 603.674 712.374 C 603.107 712.931 602.676 713.672 601.974 714.046 C 598.38 715.959 567.439 714.481 559.921 715.155 C 557.422 726.023 555.724 780.142 557.584 789.863 C 560.754 806.43 611.283 789.637 621.71 799.354 C 628.351 805.543 625.364 830.296 624.932 839.244 C 624.993 842.05 624.398 844.626 622.59 846.811 C 603.269 851.774 580.718 846.327 560.994 845.997 C 544.102 845.715 527.118 847.051 510.177 846.94 C 508.211 790.049 509.989 733.188 509.753 676.262 C 509.638 648.548 509.545 620.696 508.977 592.994 C 508.715 580.263 507.577 567.406 507.859 554.692 C 507.971 549.662 508.269 543.867 510.162 539.205 C 526.054 535.127 555.446 538.565 572.845 538.734 C 584.135 538.844 595.474 537.826 606.768 537.539 z"/>
<path transform="translate(0,0)" fill="rgb(8,9,9)" d="M 209.512 533.431 C 221.507 532.439 234.154 533.59 246.242 533.573 C 265.084 533.547 283.965 532.8 302.804 533.032 C 308.287 533.099 315.536 533.287 319.525 537.322 C 321.648 544.624 322.677 566.194 320.897 573.445 C 316.065 593.139 287.903 574.408 276.635 583.647 C 274.098 585.727 273.01 589.31 272.788 592.483 C 272.408 597.927 273.289 603.636 273.348 609.124 L 274.038 662.003 C 274.266 678.819 273.652 695.693 274.201 712.498 C 274.619 725.283 276.106 738.046 276.113 750.844 C 276.122 764.934 274.702 779.041 275.074 793.125 C 275.491 808.909 278.537 823.987 277.283 839.846 C 276.674 844.142 274.838 847.853 273.113 851.792 C 259.948 852.238 238.016 854.156 225.524 850.479 C 222.967 849.726 221.361 849.226 220.741 846.456 C 216.017 825.356 221.043 782.124 221.62 758.499 C 222.004 742.78 220.665 727.07 220.642 711.351 C 220.614 691.697 222.064 672.104 222.192 652.492 C 222.29 637.483 220.91 622.404 220.372 607.41 C 220.155 601.376 222.197 591.821 219.237 586.466 C 216.021 580.648 186.713 584.742 177.29 581.508 C 173.94 578.327 173.371 573.722 172.821 569.328 C 171.802 561.174 170.839 543.314 175.908 536.68 C 184.907 531.783 199.288 534.239 209.512 533.431 z"/>
<path transform="translate(0,0)" fill="rgb(8,9,9)" d="M 1391.9 529.005 C 1400 528.843 1429.42 528.244 1435.49 531.055 C 1438.93 539.765 1435.74 740.157 1435.69 768.513 C 1435.66 780.711 1436.34 792.957 1436.69 805.154 C 1446.52 805.129 1486.94 802.517 1493.77 804.937 C 1496.06 805.751 1496.79 807.59 1497.45 809.777 C 1499.97 818.162 1500.5 850.298 1496.7 857.585 C 1475.76 860.235 1451.46 857.395 1430.09 857.166 C 1416.2 857.017 1401.34 858.87 1387.67 856.788 C 1384.63 851.837 1384.26 844.743 1384.15 839.031 C 1383.68 812.563 1385.91 785.886 1386.07 759.403 C 1386.4 704.659 1385.22 649.953 1386.01 595.194 C 1386.28 576.213 1382.23 555.259 1385.43 536.576 C 1386.14 532.454 1388.67 531.14 1391.9 529.005 z"/>
<path transform="translate(0,0)" fill="rgb(8,9,9)" d="M 1247.21 1420.58 C 1264.04 1418.27 1287.08 1421.16 1304.55 1421.67 C 1315.8 1422 1327.12 1421.24 1338.33 1421.87 C 1340.91 1422.02 1344.44 1422.06 1346.62 1423.53 C 1348.12 1424.54 1349.06 1428.14 1349.45 1429.87 C 1351.76 1440.14 1355.39 1489.54 1349.11 1496.52 C 1346.97 1498.9 1344.65 1498.89 1341.61 1499.15 C 1329.45 1500.18 1316.44 1499.23 1304.21 1499.26 C 1283.55 1499.29 1262.89 1499.85 1242.25 1500.94 C 1229.85 1501.92 1216.91 1500.12 1204.4 1500.27 C 1188.43 1500.46 1172.21 1502.61 1156.29 1501.85 C 1151.26 1501.61 1146.41 1501.07 1141.73 1499.1 C 1139.54 1496.66 1138.76 1494.56 1138.14 1491.4 C 1136.89 1484.91 1137.25 1440.98 1138.11 1433.56 C 1138.43 1430.87 1138.92 1428.86 1140.46 1426.58 C 1144.29 1424.24 1147.89 1423.36 1152.33 1422.79 C 1162.74 1421.43 1173.84 1422.56 1184.34 1422.54 C 1205.05 1422.5 1226.55 1421.99 1247.21 1420.58 z"/>
<path transform="translate(0,0)" fill="rgb(8,9,9)" d="M 1670.34 496.688 L 1671.96 496.581 C 1679.53 496.118 1700.79 494.094 1706.24 498.884 C 1712.21 508.553 1709.05 530.918 1707.51 541.775 C 1704.99 559.555 1696.7 579.227 1681.97 590.182 C 1678.65 591.607 1673.76 593.87 1670.13 592.852 C 1668.69 592.451 1668.42 591.478 1667.65 590.342 C 1666.12 577.778 1674.78 560.37 1678.89 548.23 C 1675.47 548.11 1671.7 548.364 1668.35 547.819 C 1667.11 547.616 1665.06 546.983 1664.43 545.842 C 1661.97 541.354 1660.82 504.601 1662.68 498.916 C 1664.95 496.969 1667.5 497.001 1670.34 496.688 z"/>
<path transform="translate(0,0)" fill="rgb(8,9,9)" d="M 1205.65 1582.46 C 1240.65 1582.52 1275.87 1586.67 1310.8 1588.31 C 1343.17 1589.83 1375.57 1590.57 1407.95 1592.25 C 1414.77 1592.6 1421.63 1592.28 1428.43 1592.79 C 1431.33 1593.01 1435.89 1593.21 1438.11 1595.17 C 1429.84 1596.65 1420.84 1595.55 1412.43 1595.74 C 1388.86 1596.26 1365.34 1596.99 1341.75 1597.17 C 1296.13 1597.17 1250.53 1594.6 1204.94 1593.15 C 1190.27 1592.69 1175.58 1593.8 1160.95 1593.29 C 1140.44 1592.56 1120.32 1588.5 1099.64 1589.24 C 1121.62 1583.86 1142.45 1585.39 1164.69 1584.66 C 1178.35 1584.21 1191.97 1582.87 1205.65 1582.46 z"/>
<path transform="translate(0,0)" fill="rgb(8,9,9)" d="M 1348.68 459.447 C 1324.54 457.648 1300.51 455.186 1276.26 453.462 C 1246.05 451.316 1217.61 445.768 1187.01 445.058 C 1167.67 444.609 1147.56 440.352 1127.62 441.048 C 1113.39 441.544 1101.53 443.274 1087.49 444.625 C 1075 445.287 1059.41 440.331 1047.67 441.857 L 1048.23 441.194 C 1060.21 437.477 1079.5 435.648 1091.98 436.351 C 1158.71 440.11 1225.35 438.251 1291.97 444.709 C 1300.91 445.576 1332.54 447.319 1338.66 450.297 C 1336.87 451.527 1335.91 452.321 1334.25 453.736 L 1334.36 455.401 C 1343.67 457.861 1342.51 451.301 1352.53 457.979 L 1348.68 459.447 z"/>
<path transform="translate(0,0)" fill="rgb(8,9,9)" d="M 363.666 437.412 C 379.135 435.444 396.09 438.518 411.189 441.848 C 400.554 442.086 389.895 443.362 379.28 444.091 L 294.247 450.466 C 279.932 451.469 265.545 451.265 251.203 451.709 C 233.547 452.255 215.908 453.339 198.25 453.943 C 182.356 454.014 167.304 452.729 151.673 456.37 L 152.91 444.031 C 193.033 442.688 233.174 447.276 273.351 445.957 C 291.851 445.35 310.882 440.111 329.535 438.37 C 340.865 437.312 352.466 439.156 363.666 437.412 z"/>
<path transform="translate(0,0)" fill="rgb(8,9,9)" d="M 653.942 1582.53 C 721.088 1580.18 787.192 1586.35 853.677 1595.06 C 866.445 1596.73 882.76 1596.65 894.752 1600.81 C 891.8 1601.7 888.332 1601.1 885.25 1600.91 C 858.985 1602.23 746.041 1599.38 725.682 1590.2 C 725.354 1589.64 724.046 1587.37 723.653 1586.94 C 722.036 1585.22 721.485 1585.77 719.493 1585.92 L 719.542 1588.07 L 718.482 1589.13 L 649.696 1583.49 L 653.942 1582.53 z"/>
<path transform="translate(0,0)" fill="rgb(8,9,9)" d="M 1920.12 846.559 C 1922.63 852.834 1923.92 897.054 1924.05 906.303 C 1924.26 922.47 1922.48 1066.3 1920.04 1073.33 L 1918.56 1072.99 C 1915.79 1055.42 1917.24 1037.71 1916.36 1020.03 C 1915.11 994.878 1912.36 969.652 1912.02 944.474 C 1911.75 924.422 1914.04 904.246 1915.98 884.307 C 1917.19 871.794 1917.94 858.937 1920.12 846.559 z"/>
<path transform="translate(0,0)" fill="rgb(8,9,9)" d="M 126.324 991.489 L 127.52 991.952 L 128.84 996.592 C 129.589 1023.93 133.006 1049.89 134.435 1076.4 C 136.383 1112.53 130.909 1165.78 123.935 1201.71 C 119.469 1169.8 122.399 1126.06 123.567 1093.49 L 126.324 991.489 z"/>
<path transform="translate(0,0)" fill="rgb(8,9,9)" d="M 797.133 446.597 C 818.479 444.96 840.167 446.817 861.512 447.593 C 889.874 448.624 917.646 449.343 945.933 451.834 C 951.039 452.283 957.45 451.511 962.242 452.833 C 948.514 456.445 924.8 456.179 910.25 456.326 C 895.088 456.669 879.97 458.149 864.798 458.226 C 850.232 458.299 753.269 454.416 747.68 450.042 L 747.7 449.973 C 759.229 444.911 784.02 446.618 797.133 446.597 z"/>
<path transform="translate(0,0)" fill="rgb(8,9,9)" d="M 1441.93 1567.85 C 1459.55 1564.82 1479.58 1566.57 1497.25 1567.41 C 1503.86 1567.73 1516.16 1565.72 1521.88 1566.71 L 1522.56 1568.51 C 1521.23 1570.75 1521.06 1571.07 1518.42 1571.8 C 1507.57 1574.79 1495.06 1572.93 1483.92 1574.74 C 1476.99 1575.87 1470.19 1579.57 1463.2 1579.85 C 1453.13 1580.25 1344.14 1575.06 1343.2 1574.51 C 1365.89 1570.07 1396.82 1571.17 1420.12 1570.43 C 1423.05 1570.34 1423.13 1567.97 1426.43 1568.11 C 1425.2 1570.11 1425.27 1569.61 1423.04 1571.08 C 1425.25 1573.03 1438.48 1572.1 1442.01 1571.91 L 1442.19 1570.66 L 1441.93 1567.85 z"/>
<path transform="translate(0,0)" fill="rgb(8,9,9)" d="M 131.873 697.472 L 134.091 693.952 C 139.319 729.566 141.034 755.559 139.19 791.343 C 137.555 823.055 136.383 852.479 132.999 884.142 C 127.121 842.518 130.45 793.518 131.875 751.622 C 132.493 733.455 131.392 714.79 131.873 697.472 z"/>
<path transform="translate(0,0)" fill="rgb(8,9,9)" d="M 1910.35 1318.24 C 1901.07 1272.71 1903.15 1241.68 1908.79 1196.33 C 1911.01 1178.47 1909.66 1167.31 1915.52 1148.31 C 1915.44 1152.68 1915.51 1157.13 1915.69 1161.5 C 1917.21 1196.79 1913.48 1232.02 1913.06 1267.33 C 1912.98 1274.81 1912.78 1283.25 1912.16 1290.67 C 1910.9 1299.94 1912.66 1311.11 1910.35 1318.24 z"/>
<path transform="translate(0,0)" fill="rgb(8,9,9)" d="M 1557.59 1583.45 C 1563.11 1582.36 1666.67 1593.33 1671.2 1594.83 C 1653.02 1597.01 1634.74 1595.44 1616.5 1594.98 C 1595.08 1595.07 1573.62 1593.75 1552.23 1592.81 C 1537.44 1592.16 1521.63 1593.08 1507.25 1589.26 L 1507.73 1589.2 L 1506.5 1588.51 C 1513.63 1586.6 1522.56 1587.19 1529.99 1586.58 C 1539.2 1585.82 1548.41 1584.47 1557.59 1583.45 z"/>
<path transform="translate(0,0)" fill="rgb(8,9,9)" d="M 288.828 1596.51 C 302.608 1596.08 316.164 1596.94 329.923 1597.23 C 350.977 1597.67 375.539 1595.88 395.914 1601.41 C 386.993 1602.36 378.174 1604.03 369.234 1604.83 C 329.02 1609.54 302.101 1604.02 263.315 1601.57 C 271.946 1598.24 279.651 1597.07 288.828 1596.51 z"/>
<path transform="translate(0,0)" fill="rgb(8,9,9)" d="M 154.568 1578.35 C 156.289 1564.92 154.788 1549.93 156.222 1540.35 L 157.037 1540.11 C 158.842 1547.28 159.289 1563.08 160.318 1571.8 C 181.201 1573.13 188.666 1579.48 207.592 1582.33 C 222.261 1584.54 239.891 1582.5 255.494 1585.34 L 254.899 1587.13 C 244.597 1586.27 224.296 1591.84 209.262 1590.85 C 187.453 1589.4 175.238 1581.38 155.972 1578.55 L 154.568 1578.35 z"/>
<path transform="translate(0,0)" fill="rgb(8,9,9)" d="M 130.308 1448.69 C 131.958 1451.32 140.372 1531.18 140.848 1538.9 C 141.621 1551.44 140.934 1563.93 141.704 1576.45 C 138.274 1576.02 135.488 1576.14 132.757 1573.96 C 132.437 1558.27 133.574 1542.72 132.848 1526.93 C 131.633 1500.54 128.108 1475.29 130.308 1448.69 z"/>
<path transform="translate(0,0)" fill="rgb(8,9,9)" d="M 1909.1 466.155 C 1912.37 466.072 1915.12 465.758 1917.68 467.863 C 1920.11 484.512 1916.37 501.663 1917.08 518.394 C 1918.54 552.779 1925.94 585.337 1921.87 620.124 L 1920.86 619.504 L 1909.1 466.155 z"/>
<path transform="translate(0,0)" fill="rgb(8,9,9)" d="M 1914.28 1490.61 C 1917.04 1497.24 1912.65 1581.76 1910.39 1592.75 C 1909.94 1594.93 1910.34 1594.48 1908.24 1595.87 C 1904.89 1596 1902.7 1594.7 1899.8 1593.24 C 1898.44 1586.49 1904.07 1584.31 1904.9 1578.7 C 1905.24 1576.4 1903.69 1576.25 1903.07 1574.38 C 1902.58 1572.9 1903.4 1567.83 1903.58 1566.1 C 1906.45 1540.84 1910.02 1515.67 1914.28 1490.61 z"/>
<path transform="translate(0,0)" fill="rgb(8,9,9)" d="M 1898.59 615.754 C 1899.41 613.681 1898.72 614.498 1900.71 613.346 C 1901.38 619.512 1901.94 626.538 1903.17 632.576 C 1908.2 657.287 1902.84 682.346 1901.47 707.082 C 1900.03 732.996 1896.82 759.745 1895.94 785.575 C 1890.1 761.69 1897.83 718.088 1899.25 694.451 C 1900.85 668.235 1900.63 641.939 1898.59 615.754 z"/>
<path transform="translate(0,0)" fill="rgb(8,9,9)" d="M 1805.19 442.94 C 1818.48 442.691 1871.72 441.489 1879.36 449.362 C 1880.46 450.5 1880.73 451.303 1880.74 452.796 C 1873.83 459.412 1815.26 446.822 1803.08 445.723 L 1805.19 442.94 z"/>
<path transform="translate(0,0)" fill="rgb(8,9,9)" d="M 402.08 459.296 C 416.712 457.583 430.889 458.565 445.497 458.198 C 467.784 457.637 483.671 455.143 505.787 459.473 C 503.757 460.317 501.688 461.255 499.604 461.915 L 495.446 463.417 C 501.024 467.329 508.767 464.944 511.687 468.843 C 507.682 470.19 480.944 465.426 474.306 464.666 C 448.189 461.676 427.502 460.135 401.259 461.271 L 402.08 459.296 z"/>
<path transform="translate(0,0)" fill="rgb(8,9,9)" d="M 134.814 462.245 C 136.445 462.844 136.925 463.124 138.181 464.197 C 143.234 482.803 130.179 525.591 129.504 546.269 L 128.383 546.098 C 128.233 539.41 127.218 532.844 127.207 526.117 C 127.189 513.717 128.923 478.249 131.719 467.046 C 132.253 464.905 133.284 463.775 134.814 462.245 z"/>
<path transform="translate(0,0)" fill="rgb(6,5,8)" d="M 1476.16 439.126 C 1492.66 437.099 1516.83 441.007 1534.02 441.802 C 1553.3 442.693 1572.53 441.808 1591.8 443.497 C 1584.09 444.652 1576.53 444.921 1568.75 445.084 C 1553.93 446.156 1539.27 447.098 1524.38 446.509 C 1508.14 445.866 1491.97 443.76 1475.74 443.062 C 1470.8 442.849 1463.55 444.802 1459.09 443.548 C 1462.97 441.037 1470.46 441.033 1475.11 439.488 L 1476.16 439.126 z"/>
<path transform="translate(0,0)" fill="rgb(6,5,8)" d="M 505.942 1594.58 C 532.847 1591.5 560.528 1595.04 587.384 1596.55 C 593.995 1596.92 606.021 1595.48 611.877 1598.07 C 606.966 1601.48 584.968 1600.9 578.277 1600.96 C 562.585 1599.28 546.32 1596.77 530.544 1596.88 C 512.761 1597.01 492.753 1600.23 475.251 1597.7 C 483.841 1595.03 496.668 1595.39 505.942 1594.58 z"/>
<path transform="translate(0,0)" fill="rgb(8,9,9)" d="M 147.475 1300.98 L 150.288 1301 C 152.216 1324.67 149.167 1345.96 147.62 1369.51 C 146.829 1381.55 147.445 1393.48 146.66 1405.37 C 142.828 1395.98 143.546 1360.06 143.711 1348.3 C 143.909 1334.16 148.698 1315.08 147.475 1300.98 z"/>
<path transform="translate(0,0)" fill="rgb(8,9,9)" d="M 1866.29 468.911 C 1871.24 468.85 1876.2 469.039 1881.15 469.179 L 1881.98 470.48 C 1878.75 484.325 1880.95 500.532 1881.14 514.794 L 1880.8 515.297 C 1873.62 504.635 1873.47 480.627 1866.29 468.911 z"/>
<path transform="translate(0,0)" fill="rgb(8,9,9)" d="M 1619.05 1571.09 C 1646.94 1573.88 1675.2 1576.92 1703.19 1578.96 C 1707.61 1579.28 1728.5 1578.45 1730.73 1579.71 C 1705.76 1584.52 1673.58 1579.43 1648.3 1576.79 C 1637.29 1575.63 1623.38 1574.83 1612.89 1572.99 L 1619.05 1571.09 z"/>
<path transform="translate(0,0)" fill="rgb(8,9,9)" d="M 1888.91 1566.17 C 1890.21 1566.22 1889.48 1566.07 1891.01 1566.95 L 1890.49 1574 C 1888.35 1576.48 1856.82 1574.76 1850.7 1575.38 C 1850.28 1575.42 1849.86 1575.47 1849.44 1575.52 L 1847.72 1575.82 L 1847.51 1574.94 C 1861.29 1571.33 1875.22 1569.64 1888.91 1566.17 z"/>
<path transform="translate(0,0)" fill="rgb(8,9,9)" fill-opacity="0.972549" d="M 1916.11 712.561 C 1921.88 722.798 1916.4 771.946 1913.88 784.442 C 1909.32 774.96 1916.27 726.517 1916.11 712.561 z"/>
<path transform="translate(0,0)" fill="rgb(8,9,9)" d="M 1027.05 1598.75 C 1043.55 1596.37 1053.89 1595.45 1070.19 1599.43 L 1071.67 1599.79 C 1060.57 1602.11 1039.01 1601.02 1027.11 1601.33 L 1027.05 1598.75 z"/>
<path transform="translate(0,0)" fill="rgb(6,5,8)" d="M 1356.54 458.673 C 1364.21 455.182 1397.43 458.314 1406.75 460.338 L 1406.7 460.738 C 1391.75 460.336 1375.06 459.843 1360.18 460.187 L 1356.54 458.673 z"/>
<path transform="translate(0,0)" fill="rgb(8,9,9)" d="M 169.402 466.947 C 163.881 469.145 156.931 472.904 151.748 468.274 L 152.048 466.834 C 157.508 462.179 162.928 463.606 170.22 464.022 L 169.402 466.947 z"/>
<path transform="translate(0,0)" fill="rgb(8,9,9)" d="M 1910.91 444.751 C 1912.74 445.779 1914.33 446.854 1915.98 448.157 C 1918.22 452.823 1916.94 455.715 1915.34 460.287 C 1913.94 459.653 1912.15 458.991 1910.94 458.054 C 1909.24 456.733 1908.28 454.333 1908.16 452.227 C 1908.01 449.684 1909.3 446.623 1910.91 444.751 z"/>
<path transform="translate(0,0)" fill="rgb(6,5,8)" fill-opacity="0.988235" d="M 635.182 473.412 C 642.258 472.881 649.516 472.402 656.448 474.182 L 656.613 475.01 C 651.629 476.205 646.833 476.013 641.75 475.955 C 636.366 476.105 627.574 477.172 622.583 475.787 C 619.863 475.032 621.641 474.867 619.624 475.288 L 621.747 475.42 L 622.623 474.38 C 626.812 474.088 630.998 473.765 635.182 473.412 z"/>
<path transform="translate(0,0)" fill="rgb(6,5,8)" fill-opacity="0.972549" d="M 1027.11 1601.33 C 1018.66 1602.39 999.096 1601.82 990.898 1600.21 L 991.438 1599.67 L 992.423 1600.54 L 992.244 1599.54 C 1001.45 1598.7 1017.37 1598.89 1027.05 1598.75 L 1027.11 1601.33 z"/>
<path transform="translate(0,0)" fill="rgb(8,9,9)" d="M 131.991 444.693 C 134.706 444.944 136.66 444.982 138.905 446.729 C 140.41 449.743 139.35 453.439 138.871 456.648 C 136.466 457.081 135.183 457.25 132.863 456.416 C 130.883 453.088 131.788 448.439 131.991 444.693 z"/>
<path transform="translate(0,0)" fill="rgb(8,9,9)" fill-opacity="0.988235" d="M 1912.16 1290.67 C 1912.99 1302.46 1913.8 1322.02 1913.33 1333.67 L 1912.2 1334.47 L 1913.23 1335.18 L 1912.46 1335.91 L 1913.16 1335.73 L 1912.56 1336.58 L 1912.07 1334.58 L 1913.14 1334.33 L 1911.88 1333.42 C 1911.62 1327.59 1911.18 1323.97 1910.35 1318.24 C 1912.66 1311.11 1910.9 1299.94 1912.16 1290.67 z"/>
<path transform="translate(0,0)" fill="rgb(6,5,8)" fill-opacity="0.952941" d="M 536.088 471.424 C 544.625 470.601 569.208 471.326 576.438 475.055 C 564.142 474.528 547.642 475.735 536.088 471.424 z"/>
<path transform="translate(0,0)" fill="rgb(6,5,8)" d="M 1892.21 1587.48 C 1893.68 1587.92 1894.69 1588.5 1896.01 1589.27 C 1888.97 1591.91 1878.98 1591.05 1871.52 1590.88 C 1869.82 1590.44 1869.35 1590.34 1868 1589.13 C 1875.12 1587.33 1883.24 1588.89 1890.73 1587.72 L 1892.21 1587.48 z"/>
<path transform="translate(0,0)" fill="rgb(8,9,9)" fill-opacity="0.988235" d="M 131.873 697.472 C 131.148 692.235 129.494 672.944 130.007 668.26 C 132.232 677.079 133.349 684.908 134.091 693.952 L 131.873 697.472 z"/>
<path transform="translate(0,0)" fill="rgb(8,9,9)" d="M 153.803 483.138 C 158.067 483.106 164.689 483.067 168.219 485.561 L 165.633 485.951 C 162.669 487.426 159.9 489.003 156.59 489.524 C 154.288 487.642 154.467 485.937 153.803 483.138 z"/>
<path transform="translate(0,0)" fill="rgb(8,9,9)" d="M 131.282 1588.02 C 134.295 1588.48 137.499 1588.95 140.278 1590.27 C 143.292 1591.71 144.532 1593.31 145.757 1596.33 C 141.462 1595.26 136.013 1594.34 132.46 1591.55 C 131.015 1590.41 131.421 1589.72 131.282 1588.02 z"/>
<path transform="translate(0,0)" fill="rgb(6,5,8)" fill-opacity="0.827451" d="M 126.324 991.489 C 126.2 987.57 125.782 980.805 126.197 977.138 L 127.328 976.47 L 126.728 973.956 C 128.717 977.744 128.719 991.968 128.84 996.592 L 127.52 991.952 L 126.324 991.489 z"/>
<path transform="translate(0,0)" fill="rgb(49,52,52)" fill-opacity="0.921569" d="M 1898.59 615.754 C 1897.91 612.619 1897.7 601.73 1897.64 598.263 L 1899.62 597.24 L 1897.77 597.237 L 1898.54 595.536 C 1900.11 599.32 1900.38 608.736 1900.71 613.346 C 1898.72 614.498 1899.41 613.681 1898.59 615.754 z"/>
<path transform="translate(0,0)" fill="rgb(8,9,9)" fill-opacity="0.941176" d="M 147.475 1300.98 C 148.017 1293.96 148.384 1287.13 149.709 1280.2 C 150.712 1287.45 149.875 1293.81 150.288 1301 L 147.475 1300.98 z"/>
<path transform="translate(0,0)" fill="rgb(159,155,161)" fill-opacity="0.545098" d="M 401.259 461.271 C 397.865 462.104 392.785 462.546 389.441 461.35 C 392.652 459.388 398.098 459.547 402.08 459.296 L 401.259 461.271 z"/>
<path transform="translate(0,0)" fill="rgb(6,5,8)" fill-opacity="0.976471" d="M 505.787 459.473 C 511.842 460.104 513.495 460.342 519.401 462.045 L 499.604 461.915 C 501.688 461.255 503.757 460.317 505.787 459.473 z"/>
<path transform="translate(0,0)" fill="rgb(159,155,161)" fill-opacity="0.639216" d="M 1442.19 1570.66 C 1437.33 1569.97 1436.31 1570.69 1430.81 1569.25 C 1433.58 1567.92 1438.67 1568.02 1441.93 1567.85 L 1442.19 1570.66 z"/>
<path transform="translate(0,0)" fill="rgb(159,155,161)" fill-opacity="0.976471" d="M 1612.89 1572.99 C 1610.01 1573 1608.31 1572.55 1605.48 1572.07 L 1605.4 1571.69 C 1610.04 1570.3 1614.15 1570.88 1619.05 1571.09 L 1612.89 1572.99 z"/>
<path transform="translate(0,0)" fill="rgb(6,5,8)" fill-opacity="0.921569" d="M 1803.08 445.723 C 1800.34 445.653 1798.48 445.906 1796.14 444.533 C 1799.16 442.784 1801.65 443.075 1805.19 442.94 L 1803.08 445.723 z"/>
<path transform="translate(0,0)" fill="rgb(6,5,8)" fill-opacity="0.933333" d="M 170.22 464.022 C 173.049 464.042 175.156 463.49 176.951 464.833 C 173.54 466.19 173.056 466.261 169.402 466.947 L 170.22 464.022 z"/>
<path transform="translate(0,0)" fill="rgb(6,5,8)" fill-opacity="0.866667" d="M 255.494 1585.34 C 257.978 1586.31 261.574 1587.06 262.383 1588.82 C 258.375 1588.67 258.552 1588.74 254.899 1587.13 L 255.494 1585.34 z"/>
<path transform="translate(0,0)" fill="rgb(6,5,8)" fill-opacity="0.882353" d="M 1352.53 457.979 L 1356.54 458.673 L 1360.18 460.187 L 1348.68 459.447 L 1352.53 457.979 z"/>
<path transform="translate(0,0)" fill="rgb(6,5,8)" d="M 1915.82 1640.15 C 1913.51 1638.48 1913.3 1639.11 1909.67 1639.15 L 1908.04 1637.06 C 1908.8 1632.68 1909.63 1634.17 1912.37 1630.7 C 1914.61 1627.89 1909.82 1630.83 1912.49 1625.7 L 1913.44 1625.82 C 1917.42 1631.12 1919.08 1633.28 1922.14 1639.2 L 1920.98 1641.04 C 1918.24 1641.34 1918.4 1641.22 1915.82 1640.15 z"/>
<path transform="translate(0,0)" fill="rgb(147,151,143)" d="M 1915.82 1640.15 C 1916.85 1638.56 1916.18 1639.3 1917.97 1638.05 L 1922.14 1639.2 L 1920.98 1641.04 C 1918.24 1641.34 1918.4 1641.22 1915.82 1640.15 z"/>
<path transform="translate(0,0)" fill="rgb(6,5,8)" d="M 1952.8 421.335 C 1956.57 422.525 1959.83 423.307 1963.2 425.382 L 1962.82 426.557 L 1958.26 426.53 C 1958.01 430.43 1957.72 430.642 1954.65 432.415 C 1951.47 431.796 1952.9 432.536 1950.59 429.477 C 1949.91 426.273 1951.34 424.389 1952.8 421.335 z"/>
<path transform="translate(0,0)" fill="rgb(6,5,8)" d="M 1951.73 408.984 C 1947 408.616 1946.54 408.436 1944.7 404.414 C 1945.82 401.24 1944.86 402.514 1947.85 400.606 C 1951.81 400.348 1951.64 400.483 1955.31 402.286 C 1956.31 406.324 1956.69 405.33 1955.55 408.698 C 1952.87 409.586 1954.12 409.72 1951.73 408.984 z"/>
<path transform="translate(0,0)" fill="rgb(147,151,143)" d="M 1955.31 402.286 C 1956.31 406.324 1956.69 405.33 1955.55 408.698 C 1952.87 409.586 1954.12 409.72 1951.73 408.984 L 1955.31 402.286 z"/>
<path transform="translate(0,0)" fill="rgb(192,193,190)" fill-opacity="0.0431373" d="M 100.475 745.109 L 102.849 745.993 C 104.575 748.228 103.97 748.844 103.837 751.562 C 105.265 753.983 105.85 753.835 108.537 754.812 L 109.088 756.277 L 108.221 756.958 C 106.746 757.098 105.763 757.627 104.542 756.588 C 101.306 753.833 100.89 749.052 100.475 745.109 z"/>
<path transform="translate(0,0)" fill="rgb(147,151,143)" d="M 102.139 403.042 L 110.134 403.625 L 111.538 405.256 C 108.76 406.147 107.396 406.607 104.493 407.169 C 102.021 405.417 103.031 406.56 102.139 403.042 z"/>
<path transform="translate(0,0)" fill="rgb(192,193,190)" d="M 1090.98 1634.7 C 1093.43 1634.92 1095.61 1634.48 1097.29 1636.36 L 1095.33 1638.95 C 1093.7 1638.97 1092.05 1638.85 1090.42 1638.78 L 1089.53 1637.62 L 1090.98 1634.7 z"/>
<path transform="translate(0,0)" fill="rgb(49,52,52)" d="M 1954.29 1162.64 C 1956.03 1164.13 1957.34 1169.16 1958.25 1171.43 C 1956.76 1170.86 1955.36 1170.11 1953.93 1169.4 C 1952.91 1166.53 1953.54 1165.53 1954.29 1162.64 z"/>
<path transform="translate(0,0)" fill="rgb(6,5,8)" fill-opacity="0.984314" d="M 102.448 781.243 C 104.648 781.226 105.435 782.341 107.198 783.571 L 106.932 786.063 C 104.483 784.392 103.243 784.171 102.448 781.243 z"/>
<path transform="translate(0,0)" fill="rgb(86,88,86)" d="M 970.833 403.684 L 972.019 404.859 L 971.923 406.809 L 967.734 410.189 L 966.869 409.501 L 966.777 407.923 L 970.833 403.684 z"/>
<path transform="translate(0,0)" fill="rgb(147,151,143)" d="M 1201.2 1626.56 L 1203.06 1625.66 L 1204.23 1626.79 L 1204.23 1632.22 C 1202.66 1630.99 1201.79 1629.83 1200.6 1628.25 L 1201.2 1626.56 z"/>
<path transform="translate(0,0)" fill="rgb(192,193,190)" d="M 1955.49 567.412 L 1957.6 568.412 L 1957.59 570.259 L 1954.36 573.237 C 1952.85 572.53 1953.52 573.091 1952.57 571.318 L 1955.49 567.412 z"/>
<path transform="translate(0,0)" fill="rgb(49,52,52)" d="M 1930.77 402.033 L 1931.51 402.764 L 1931.38 404.279 L 1926.56 406.859 L 1925.31 406.05 L 1925.54 404.646 L 1930.77 402.033 z"/>
<path transform="translate(0,0)" fill="rgb(49,52,52)" d="M 85.7614 402.547 C 89.5957 405.255 88.4519 404.588 90.6453 409.544 C 86.4958 406.719 87.8487 407.951 85.7614 402.547 z"/>
<path transform="translate(0,0)" fill="rgb(192,193,190)" d="M 1961.69 1326.53 L 1962.78 1325.87 L 1963.75 1326.33 L 1963.34 1330.47 L 1961.87 1330.62 L 1960.91 1329.58 L 1961.69 1326.53 z"/>
<path transform="translate(0,0)" fill="rgb(86,88,86)" d="M 841.908 1641.51 C 842.817 1642.01 843.653 1642.77 844.478 1643.4 L 844.267 1646.69 L 842.879 1646.51 L 841.908 1641.51 z"/>
<path transform="translate(0,0)" fill="rgb(49,52,52)" d="M 1960.96 1116 C 1961.92 1117.46 1961.69 1116.62 1961.37 1118.58 L 1958.46 1118.52 L 1955.88 1118.17 L 1960.96 1116 z"/>
<path transform="translate(0,0)" fill="rgb(6,5,8)" fill-opacity="0.988235" d="M 95.6745 1479.2 L 97.0098 1479.52 L 96.2327 1481.68 L 94.0639 1481.36 L 95.6745 1479.2 z"/>
</svg>